<svg width="36" height="36" viewBox="0 0 36 36" fill="none" xmlns="http://www.w3.org/2000/svg">
<path d="M28 36.0006C24.6926 35.9976 21.4366 35.1802 18.52 33.6206L17.62 33.1206C11.4015 29.7772 6.30338 24.679 2.96 18.4606L2.46 17.5606C0.859641 14.6274 0.0142612 11.3419 1.24351e-06 8.00054V6.66054C-0.000838757 5.59446 0.423921 4.57213 1.18 3.82053L4.56 0.440535C4.88826 0.109735 5.35162 -0.049705 5.81392 0.00905501C6.27622 0.067815 6.68496 0.338135 6.92 0.740535L11.42 8.46054C11.8751 9.24632 11.7437 10.2401 11.1 10.8805L7.32 14.6606C7.00608 14.971 6.93294 15.4506 7.14 15.8406L7.84 17.1606C10.3541 21.8174 14.1786 25.635 18.84 28.1406L20.16 28.8606C20.55 29.0676 21.0296 28.9944 21.34 28.6806L25.12 24.9006C25.7604 24.257 26.7542 24.1256 27.54 24.5806L35.26 29.0806C35.6624 29.3156 35.9328 29.7244 35.9914 30.1866C36.0502 30.649 35.8908 31.1124 35.56 31.4406L32.18 34.8206C31.4284 35.5766 30.406 36.0014 29.34 36.0006H28Z" fill="#FFB483"/>
</svg>
