<svg width="30" height="40" viewBox="0 0 30 40" fill="none" xmlns="http://www.w3.org/2000/svg">
<path d="M15.0002 -0.000976562C7.01225 -0.000976562 0.513672 6.49762 0.513672 14.4854C0.513672 24.3986 13.4776 38.9516 14.0296 39.5662C14.548 40.1436 15.4532 40.1426 15.9708 39.5662C16.5226 38.9516 29.4866 24.3986 29.4866 14.4854C29.4864 6.49762 22.988 -0.000976562 15.0002 -0.000976562ZM15.0002 21.774C10.9812 21.774 7.71171 18.5044 7.71171 14.4854C7.71171 10.4665 10.9813 7.19698 15.0002 7.19698C19.019 7.19698 22.2886 10.4666 22.2886 14.4855C22.2886 18.5044 19.019 21.774 15.0002 21.774Z" fill="#FFB483"/>
</svg>
