<svg width="40" height="40" viewBox="0 0 40 40" fill="none" xmlns="http://www.w3.org/2000/svg">
<path fill-rule="evenodd" clip-rule="evenodd" d="M32 0H8C3.58172 0 0 3.58172 0 8V39C0 39.5522 0.44772 40 1 40C1.26424 39.9984 1.51666 39.8902 1.7 39.7L7.7 33.7C8.84866 32.5816 10.3971 31.9694 12 32H32C36.4182 32 40 28.4182 40 24V8C40 3.58172 36.4182 0 32 0ZM24 21C24 21.5522 23.5522 22 23 22H9C8.44772 22 8 21.5522 8 21V19C8 18.4478 8.44772 18 9 18H23C23.5522 18 24 18.4478 24 19V21ZM31 14C31.5522 14 32 13.5523 32 13V11C32 10.4477 31.5522 10 31 10H9C8.44772 10 8 10.4477 8 11V13C8 13.5523 8.44772 14 9 14H31Z" fill="#FFB483"/>
</svg>
